<svg width="389" height="159" viewBox="0 0 389 159" fill="none" xmlns="http://www.w3.org/2000/svg">
<path d="M81.1123 82.1153C79.9872 83.2397 78.4616 83.8713 76.871 83.8713L37.0048 83.8713C35.2322 83.8713 34.3357 81.7359 35.5773 80.4706L75.2372 40.0521C76.3655 38.9022 77.9088 38.2543 79.5198 38.2543L120.171 38.2542C121.953 38.2542 122.845 40.4092 121.584 41.6689L81.1123 82.1153Z" fill="white"/>
<path d="M81.1123 120.115C79.9872 121.24 78.4616 121.871 76.871 121.871L37.0048 121.871C35.2322 121.871 34.3357 119.736 35.5773 118.471L75.2372 78.0521C76.3655 76.9022 77.9088 76.2543 79.5198 76.2543L120.171 76.2542C121.953 76.2542 122.845 78.4092 121.584 79.6689L81.1123 120.115Z" fill="white" fill-opacity="0.7"/>
<path d="M139.972 74.382V66.12H147.991V54.861H157.711V66.12H168.403V74.382H157.711V91.392C157.711 93.336 158.062 94.875 158.764 96.009C159.52 97.143 160.978 97.71 163.138 97.71C164.002 97.71 164.947 97.629 165.973 97.467C166.999 97.251 167.809 96.927 168.403 96.495V104.676C167.377 105.162 166.108 105.486 164.596 105.648C163.138 105.864 161.842 105.972 160.708 105.972C158.116 105.972 155.983 105.675 154.309 105.081C152.689 104.541 151.393 103.704 150.421 102.57C149.503 101.382 148.855 99.924 148.477 98.196C148.153 96.468 147.991 94.47 147.991 92.202V74.382H139.972ZM209.038 105H199.804V98.763H199.642C198.724 100.707 197.32 102.408 195.43 103.866C193.54 105.27 190.975 105.972 187.735 105.972C185.143 105.972 182.929 105.567 181.093 104.757C179.311 103.893 177.853 102.759 176.719 101.355C175.585 99.897 174.775 98.25 174.289 96.414C173.803 94.578 173.56 92.661 173.56 90.663V66.12H183.28V85.803C183.28 86.883 183.334 88.098 183.442 89.448C183.55 90.744 183.82 91.986 184.252 93.174C184.738 94.308 185.44 95.28 186.358 96.09C187.33 96.846 188.68 97.224 190.408 97.224C192.028 97.224 193.378 96.954 194.458 96.414C195.592 95.874 196.51 95.145 197.212 94.227C197.968 93.309 198.508 92.256 198.832 91.068C199.156 89.88 199.318 88.638 199.318 87.342V66.12H209.038V105ZM217.642 66.12H227.362V72.276H227.524C228.604 70.008 230.143 68.253 232.141 67.011C234.139 65.769 236.434 65.148 239.026 65.148C239.62 65.148 240.187 65.202 240.727 65.31C241.321 65.418 241.915 65.553 242.509 65.715V75.111C241.699 74.895 240.889 74.733 240.079 74.625C239.323 74.463 238.567 74.382 237.811 74.382C235.543 74.382 233.707 74.814 232.303 75.678C230.953 76.488 229.9 77.433 229.144 78.513C228.442 79.593 227.956 80.673 227.686 81.753C227.47 82.833 227.362 83.643 227.362 84.183V105H217.642V66.12ZM246.695 43.764H256.415V71.061H256.658C257.144 70.413 257.765 69.765 258.521 69.117C259.277 68.415 260.195 67.767 261.275 67.173C262.355 66.579 263.597 66.093 265.001 65.715C266.405 65.337 268.025 65.148 269.861 65.148C272.615 65.148 275.153 65.688 277.475 66.768C279.797 67.794 281.768 69.225 283.388 71.061C285.062 72.897 286.358 75.057 287.276 77.541C288.194 80.025 288.653 82.698 288.653 85.56C288.653 88.422 288.221 91.095 287.357 93.579C286.493 96.063 285.224 98.223 283.55 100.059C281.876 101.895 279.851 103.353 277.475 104.433C275.099 105.459 272.426 105.972 269.456 105.972C266.702 105.972 264.137 105.432 261.761 104.352C259.385 103.272 257.495 101.544 256.091 99.168H255.929V105H246.695V43.764ZM278.933 85.56C278.933 84.048 278.663 82.59 278.123 81.186C277.637 79.782 276.881 78.54 275.855 77.46C274.883 76.38 273.695 75.516 272.291 74.868C270.887 74.22 269.294 73.896 267.512 73.896C265.73 73.896 264.137 74.22 262.733 74.868C261.329 75.516 260.114 76.38 259.088 77.46C258.116 78.54 257.36 79.782 256.82 81.186C256.334 82.59 256.091 84.048 256.091 85.56C256.091 87.072 256.334 88.53 256.82 89.934C257.36 91.338 258.116 92.58 259.088 93.66C260.114 94.74 261.329 95.604 262.733 96.252C264.137 96.9 265.73 97.224 267.512 97.224C269.294 97.224 270.887 96.9 272.291 96.252C273.695 95.604 274.883 94.74 275.855 93.66C276.881 92.58 277.637 91.338 278.123 89.934C278.663 88.53 278.933 87.072 278.933 85.56ZM293.341 85.56C293.341 82.482 293.881 79.701 294.961 77.217C296.095 74.679 297.607 72.519 299.497 70.737C301.387 68.955 303.628 67.578 306.22 66.606C308.812 65.634 311.566 65.148 314.482 65.148C317.398 65.148 320.152 65.634 322.744 66.606C325.336 67.578 327.577 68.955 329.467 70.737C331.357 72.519 332.842 74.679 333.922 77.217C335.056 79.701 335.623 82.482 335.623 85.56C335.623 88.638 335.056 91.446 333.922 93.984C332.842 96.468 331.357 98.601 329.467 100.383C327.577 102.165 325.336 103.542 322.744 104.514C320.152 105.486 317.398 105.972 314.482 105.972C311.566 105.972 308.812 105.486 306.22 104.514C303.628 103.542 301.387 102.165 299.497 100.383C297.607 98.601 296.095 96.468 294.961 93.984C293.881 91.446 293.341 88.638 293.341 85.56ZM303.061 85.56C303.061 87.072 303.304 88.53 303.79 89.934C304.33 91.338 305.086 92.58 306.058 93.66C307.084 94.74 308.299 95.604 309.703 96.252C311.107 96.9 312.7 97.224 314.482 97.224C316.264 97.224 317.857 96.9 319.261 96.252C320.665 95.604 321.853 94.74 322.825 93.66C323.851 92.58 324.607 91.338 325.093 89.934C325.633 88.53 325.903 87.072 325.903 85.56C325.903 84.048 325.633 82.59 325.093 81.186C324.607 79.782 323.851 78.54 322.825 77.46C321.853 76.38 320.665 75.516 319.261 74.868C317.857 74.22 316.264 73.896 314.482 73.896C312.7 73.896 311.107 74.22 309.703 74.868C308.299 75.516 307.084 76.38 306.058 77.46C305.086 78.54 304.33 79.782 303.79 81.186C303.304 82.59 303.061 84.048 303.061 85.56Z" fill="white"/>
</svg>
